# xmcd CD database file
#
# Track frame offsets:
#	150
#	30449
#	60364
#	92041
#	118551
#	146403
#	178619
#	208254
#	235468
#	270889
#
# Disc length: 4052 seconds
#
# Revision: 0
# Processed by: cddbd v1.5.2PL0 Copyright (c) Steve Scherf et al.
# Submitted via: CDex 1.50
#
DISCID=810fd20a
DTITLE=Yaniv Taubenhouse - Moments in Trio_Volume One_Jerad Lippi (drums), Yaniv Taubenhouse (piano), Rick Rosato (bass)
DYEAR=2015
DGENRE=Jazz
TTITLE0=Yaniv Taubenhouse - After The Storm
TTITLE1=Yaniv Taubenhouse - All The Figs
TTITLE2=Yaniv Taubenhouse - With You
TTITLE3=Yaniv Taubenhouse - Sunshine In Pain
TTITLE4=Yaniv Taubenhouse - Conversation
TTITLE5=Rick Rosato  - Migrations
TTITLE6=Yaniv Taubenhouse - Prelude Of The Ozarks
TTITLE7=Yaniv Taubenhouse - Unknown
TTITLE8=Yaniv Taubenhouse - Imaginary Darkness
TTITLE9=Burton Lane - How About You
EXTD=YEAR: 2015
EXTT0=
EXTT1=
EXTT2=
EXTT3=
EXTT4=
EXTT5=
EXTT6=
EXTT7=
EXTT8=
EXTT9=
PLAYORDER=
